<?xml version="1.0" encoding="utf-8"?>
<!-- Generator: Adobe Illustrator 16.2.1, SVG Export Plug-In . SVG Version: 6.00 Build 0)  -->
<!DOCTYPE svg PUBLIC "-//W3C//DTD SVG 1.1//EN" "http://www.w3.org/Graphics/SVG/1.1/DTD/svg11.dtd">
<svg version="1.1" id="Livetype" xmlns="http://www.w3.org/2000/svg" xmlns:xlink="http://www.w3.org/1999/xlink" x="0px" y="0px"
	 width="110px" height="40px" viewBox="0 0 110 40" enable-background="new 0 0 110 40" xml:space="preserve">
<g>
	<path fill="#A6A6A6" d="M103.371,0H6.625C6.373,0,6.119,0,5.867,0.001C5.652,0.002,5.444,0.005,5.23,0.01
		c-0.465,0.016-0.934,0.04-1.394,0.125c-0.467,0.082-0.9,0.22-1.319,0.436C2.099,0.783,1.721,1.057,1.387,1.386
		c-0.33,0.335-0.604,0.712-0.815,1.131C0.355,2.936,0.218,3.37,0.137,3.837C0.049,4.297,0.025,4.766,0.01,5.231
		C0.005,5.444,0.003,5.652,0.002,5.866C0,6.119,0.001,6.372,0.001,6.625v26.753c0,0.248-0.001,0.506,0.001,0.756
		c0.001,0.211,0.003,0.426,0.008,0.639c0.016,0.471,0.039,0.934,0.127,1.389c0.081,0.473,0.219,0.906,0.435,1.33
		c0.212,0.408,0.485,0.799,0.815,1.121c0.334,0.334,0.712,0.613,1.131,0.824c0.419,0.217,0.853,0.344,1.319,0.438
		c0.46,0.08,0.929,0.105,1.394,0.115c0.214,0.004,0.422,0.006,0.637,0.008C6.119,40,6.373,40,6.625,40h96.746
		c0.252,0,0.506,0,0.76-0.002c0.211-0.002,0.426-0.004,0.641-0.008c0.463-0.01,0.932-0.035,1.393-0.115
		c0.461-0.094,0.895-0.221,1.32-0.438c0.42-0.211,0.797-0.49,1.127-0.824c0.328-0.322,0.607-0.713,0.818-1.121
		c0.217-0.424,0.354-0.857,0.436-1.33c0.082-0.455,0.111-0.918,0.123-1.389c0.008-0.213,0.01-0.428,0.01-0.639
		C110,33.885,110,33.627,110,33.379V6.625c0-0.254,0-0.506-0.002-0.76c0-0.213-0.002-0.421-0.01-0.635
		c-0.012-0.465-0.041-0.934-0.123-1.394c-0.082-0.467-0.219-0.901-0.436-1.32c-0.211-0.419-0.49-0.796-0.818-1.131
		c-0.33-0.329-0.707-0.603-1.127-0.815c-0.426-0.215-0.859-0.354-1.32-0.436c-0.461-0.086-0.93-0.11-1.393-0.125
		c-0.215-0.005-0.43-0.007-0.641-0.008C103.877,0,103.623,0,103.371,0L103.371,0z"/>
	<path d="M103.371,0.985l0.752,0.001c0.207,0.001,0.416,0.003,0.619,0.013c0.379,0.009,0.818,0.027,1.246,0.108
		c0.395,0.071,0.727,0.18,1.051,0.342c0.32,0.166,0.615,0.38,0.875,0.638c0.258,0.258,0.473,0.552,0.639,0.876
		c0.162,0.322,0.271,0.654,0.342,1.05c0.076,0.423,0.096,0.865,0.105,1.24c0.006,0.207,0.008,0.415,0.008,0.625
		c0.002,0.25,0.002,0.496,0.002,0.748v26.753c0,0.246,0,0.502-0.002,0.75c0,0.207-0.002,0.416-0.008,0.621
		c-0.01,0.377-0.029,0.818-0.105,1.244c-0.07,0.387-0.18,0.725-0.342,1.053c-0.166,0.318-0.381,0.613-0.639,0.875
		c-0.26,0.254-0.555,0.467-0.877,0.627c-0.322,0.174-0.654,0.277-1.047,0.35c-0.434,0.074-0.893,0.104-1.244,0.111
		c-0.205,0.004-0.412,0.006-0.623,0.008c-0.25,0.002-0.502,0.002-0.752,0.002H6.625c-0.002,0-0.004,0-0.007,0
		c-0.249,0-0.497,0-0.748-0.002c-0.203-0.002-0.411-0.004-0.616-0.008c-0.35-0.008-0.811-0.037-1.241-0.111
		c-0.396-0.072-0.728-0.176-1.051-0.35c-0.323-0.16-0.617-0.373-0.874-0.627c-0.258-0.262-0.472-0.557-0.639-0.875
		c-0.161-0.328-0.271-0.666-0.342-1.055C1.026,35.566,1.009,35.127,1,34.75c-0.01-0.207-0.012-0.416-0.014-0.621v-0.6v-0.15V6.625
		v-0.15V5.877C0.988,5.669,0.99,5.461,1,5.253c0.009-0.374,0.026-0.814,0.108-1.241c0.07-0.394,0.18-0.727,0.341-1.05
		C1.616,2.639,1.83,2.345,2.088,2.087c0.257-0.257,0.551-0.472,0.875-0.639c0.322-0.161,0.654-0.27,1.049-0.341
		C4.439,1.026,4.879,1.008,5.254,1C5.461,0.99,5.67,0.988,5.877,0.987l0.748-0.001H103.371"/>
	<g>
		<g>
			<path fill="#FFFFFF" d="M30.129,19.783c-0.029-3.223,2.639-4.791,2.761-4.864c-1.511-2.203-3.853-2.504-4.676-2.528
				c-1.968-0.207-3.874,1.177-4.877,1.177c-1.022,0-2.565-1.157-4.228-1.123c-2.14,0.033-4.143,1.272-5.24,3.196
				c-2.266,3.922-0.576,9.688,1.595,12.858c1.086,1.553,2.354,3.287,4.016,3.227c1.625-0.068,2.231-1.037,4.193-1.037
				c1.943,0,2.513,1.037,4.207,0.998c1.743-0.029,2.843-1.561,3.89-3.127c1.256-1.781,1.76-3.533,1.779-3.623
				C33.508,24.924,30.162,23.646,30.129,19.783z"/>
			<path fill="#FFFFFF" d="M26.929,10.306c0.874-1.093,1.472-2.58,1.306-4.089c-1.266,0.056-2.848,0.875-3.758,1.944
				c-0.806,0.942-1.525,2.486-1.34,3.938C24.558,12.205,26.017,11.382,26.929,10.306z"/>
		</g>
	</g>
	<g>
		<path fill="#FFFFFF" d="M48.279,13.372h-3.616V7.09h3.486v0.83h-2.479V9.69h2.339v0.83h-2.339v2.022h2.609V13.372z"/>
		<path fill="#FFFFFF" d="M52.016,9.728C51.917,9.709,51.811,9.7,51.699,9.7c-0.354,0-0.627,0.133-0.82,0.4
			c-0.168,0.236-0.252,0.535-0.252,0.895v2.376h-1.006l0.009-3.104c0-0.522-0.013-0.997-0.037-1.426h0.876l0.037,0.867h0.028
			c0.105-0.298,0.273-0.538,0.503-0.718c0.224-0.162,0.466-0.242,0.727-0.242c0.093,0,0.177,0.006,0.251,0.019V9.728z"/>
		<path fill="#FFFFFF" d="M57.086,13.372h-1.007v-2.575c0-0.812-0.304-1.218-0.913-1.218c-0.466,0-0.786,0.236-0.96,0.707
			c-0.031,0.099-0.047,0.22-0.047,0.362v2.724h-1.006V6.764h1.006v2.73h0.019c0.317-0.497,0.77-0.745,1.36-0.745
			c0.417,0,0.761,0.137,1.035,0.41c0.342,0.341,0.513,0.848,0.513,1.519V13.372z"/>
		<path fill="#FFFFFF" d="M62.1,13.372h-0.906l-0.075-0.522H61.09c-0.311,0.417-0.751,0.625-1.322,0.625
			c-0.428,0-0.771-0.137-1.033-0.41c-0.235-0.249-0.354-0.556-0.354-0.923c0-0.553,0.232-0.975,0.695-1.267s1.113-0.435,1.952-0.429
			v-0.084c0-0.597-0.313-0.895-0.939-0.895c-0.446,0-0.84,0.112-1.181,0.336l-0.205-0.662c0.422-0.261,0.939-0.391,1.555-0.391
			c1.185,0,1.777,0.625,1.777,1.873v1.668C62.035,12.745,62.057,13.105,62.1,13.372z M59.984,7.696c0,0.149-0.048,0.273-0.143,0.373
			c-0.096,0.1-0.215,0.149-0.355,0.149c-0.143,0-0.263-0.051-0.361-0.154c-0.098-0.103-0.147-0.225-0.147-0.368
			s0.051-0.266,0.152-0.368c0.103-0.103,0.224-0.154,0.365-0.154s0.259,0.051,0.351,0.154S59.984,7.553,59.984,7.696z
			 M61.057,11.815v-0.699c-1.113-0.019-1.669,0.286-1.669,0.913c0,0.236,0.065,0.414,0.194,0.531
			c0.13,0.118,0.294,0.177,0.492,0.177c0.222,0,0.428-0.07,0.615-0.209c0.189-0.14,0.305-0.318,0.348-0.536
			C61.05,11.943,61.057,11.884,61.057,11.815z M61.727,7.696c0,0.149-0.047,0.273-0.143,0.373c-0.096,0.1-0.217,0.149-0.365,0.149
			c-0.141,0-0.26-0.051-0.355-0.154s-0.143-0.225-0.143-0.368s0.049-0.266,0.147-0.368s0.222-0.154,0.37-0.154
			c0.141,0,0.258,0.051,0.351,0.154S61.727,7.553,61.727,7.696z"/>
		<path fill="#FFFFFF" d="M64.654,13.372h-1.007V6.764h1.007V13.372z"/>
		<path fill="#FFFFFF" d="M68.578,9.598h-1.109v2.199c0,0.559,0.195,0.839,0.588,0.839c0.18,0,0.328-0.016,0.447-0.046l0.027,0.764
			c-0.199,0.075-0.459,0.112-0.783,0.112c-0.396,0-0.709-0.121-0.932-0.364c-0.225-0.242-0.336-0.649-0.336-1.221V9.598h-0.662
			V8.843h0.662v-0.83l0.988-0.298v1.128h1.109V9.598z"/>
		<path fill="#FFFFFF" d="M70.832,13.372h-1.006V6.764h1.006V13.372z"/>
		<path fill="#FFFFFF" d="M73.592,7.491c0,0.18-0.059,0.326-0.178,0.438c-0.117,0.112-0.27,0.168-0.457,0.168
			c-0.168,0-0.309-0.058-0.424-0.173c-0.115-0.115-0.172-0.259-0.172-0.433s0.059-0.317,0.178-0.429
			c0.117-0.112,0.264-0.168,0.438-0.168s0.32,0.056,0.438,0.168C73.533,7.174,73.592,7.317,73.592,7.491z M73.48,13.372h-1.008
			V8.843h1.008V13.372z"/>
		<path fill="#FFFFFF" d="M78.355,8.964l-0.197,0.764c-0.254-0.125-0.547-0.187-0.875-0.187c-0.441,0-0.791,0.148-1.049,0.443
			s-0.387,0.669-0.387,1.123c0,0.479,0.135,0.857,0.406,1.137c0.27,0.28,0.613,0.419,1.029,0.419c0.311,0,0.615-0.062,0.912-0.186
			l0.141,0.755c-0.33,0.155-0.746,0.233-1.248,0.233c-0.691,0-1.24-0.21-1.65-0.629c-0.41-0.419-0.615-0.98-0.615-1.682
			s0.221-1.278,0.662-1.729c0.441-0.451,1.035-0.676,1.779-0.676C77.688,8.75,78.051,8.821,78.355,8.964z"/>
		<path fill="#FFFFFF" d="M83.518,13.372h-1.006v-2.575c0-0.812-0.305-1.218-0.914-1.218c-0.465,0-0.785,0.236-0.959,0.707
			c-0.031,0.099-0.047,0.22-0.047,0.362v2.724h-1.006V6.764h1.006v2.73h0.02c0.316-0.497,0.77-0.745,1.359-0.745
			c0.416,0,0.762,0.137,1.035,0.41c0.342,0.341,0.512,0.848,0.512,1.519V13.372z"/>
		<path fill="#FFFFFF" d="M92.035,11.042c0,0.764-0.211,1.374-0.633,1.827c-0.373,0.404-0.83,0.606-1.371,0.606
			c-0.645,0-1.121-0.267-1.426-0.802h-0.018l-0.057,0.699h-0.857c0.025-0.367,0.037-0.773,0.037-1.221V6.764h1.008v2.74h0.018
			c0.299-0.503,0.779-0.755,1.445-0.755c0.547,0,0.992,0.209,1.338,0.629C91.863,9.798,92.035,10.353,92.035,11.042z M91.01,11.08
			c0-0.441-0.098-0.802-0.297-1.082c-0.219-0.304-0.514-0.457-0.887-0.457c-0.248,0-0.471,0.081-0.67,0.242
			c-0.199,0.162-0.332,0.376-0.4,0.643c-0.025,0.106-0.037,0.211-0.037,0.317v0.792c0,0.311,0.104,0.578,0.311,0.801
			c0.209,0.224,0.469,0.335,0.779,0.335c0.379,0,0.674-0.143,0.885-0.429C90.904,11.958,91.01,11.57,91.01,11.08z"/>
		<path fill="#FFFFFF" d="M97.105,10.893c0,0.18-0.012,0.333-0.037,0.457h-3.02c0.014,0.447,0.158,0.789,0.439,1.025
			c0.254,0.211,0.584,0.317,0.986,0.317c0.447,0,0.855-0.072,1.223-0.214l0.158,0.699c-0.43,0.187-0.936,0.28-1.52,0.28
			c-0.703,0-1.254-0.207-1.654-0.62c-0.4-0.413-0.602-0.967-0.602-1.664c0-0.683,0.186-1.252,0.559-1.706
			c0.393-0.484,0.92-0.727,1.586-0.727c0.652,0,1.145,0.242,1.48,0.727C96.973,9.853,97.105,10.328,97.105,10.893z M96.146,10.632
			c0.006-0.298-0.059-0.556-0.195-0.773c-0.174-0.28-0.441-0.419-0.803-0.419c-0.328,0-0.596,0.137-0.801,0.41
			c-0.168,0.218-0.268,0.479-0.299,0.783H96.146z"/>
		<path fill="#FFFFFF" d="M99.539,7.491c0,0.18-0.059,0.326-0.178,0.438c-0.117,0.112-0.27,0.168-0.457,0.168
			c-0.168,0-0.309-0.058-0.424-0.173c-0.115-0.115-0.172-0.259-0.172-0.433s0.059-0.317,0.178-0.429
			c0.117-0.112,0.264-0.168,0.438-0.168s0.32,0.056,0.438,0.168C99.48,7.174,99.539,7.317,99.539,7.491z M99.428,13.372H98.42V8.843
			h1.008V13.372z"/>
	</g>
	<g>
		<path fill="#FFFFFF" d="M47.047,19.04c0,0.382-0.125,0.691-0.375,0.928c-0.25,0.237-0.573,0.355-0.968,0.355
			c-0.355,0-0.655-0.122-0.899-0.365s-0.365-0.549-0.365-0.918c0-0.368,0.125-0.671,0.375-0.908c0.25-0.237,0.559-0.355,0.928-0.355
			c0.368,0,0.678,0.118,0.928,0.355C46.922,18.368,47.047,18.671,47.047,19.04z M46.811,31.502h-2.133v-9.599h2.133V31.502z"/>
		<path fill="#FFFFFF" d="M58.285,19.988h-3.812v11.514H52.34V19.988h-3.792V18.19h9.737V19.988z"/>
		<path fill="#FFFFFF" d="M67.172,31.502h-1.875l-0.119-1.461h-0.039c-0.672,1.119-1.686,1.678-3.042,1.678
			c-0.948,0-1.705-0.296-2.271-0.889c-0.672-0.724-1.008-1.816-1.008-3.278v-5.648h2.133v5.293c0,1.844,0.633,2.765,1.896,2.765
			c0.947,0,1.605-0.461,1.975-1.382c0.092-0.237,0.139-0.507,0.139-0.81v-5.866h2.133v6.833
			C67.094,29.646,67.119,30.567,67.172,31.502z"/>
		<path fill="#FFFFFF" d="M78.391,31.502h-2.133v-5.496c0-1.695-0.645-2.542-1.936-2.542c-0.633,0-1.145,0.233-1.541,0.699
			c-0.395,0.466-0.592,1.015-0.592,1.646v5.693h-2.133v-6.854c0-0.842-0.027-1.758-0.08-2.745h1.877l0.1,1.501h0.059
			c0.25-0.467,0.619-0.854,1.105-1.158c0.58-0.36,1.225-0.54,1.936-0.54c0.896,0,1.639,0.29,2.232,0.869
			c0.736,0.711,1.105,1.771,1.105,3.18V31.502z"/>
		<path fill="#FFFFFF" d="M89.273,26.248c0,0.383-0.027,0.705-0.08,0.969h-6.398c0.025,0.947,0.336,1.672,0.928,2.172
			c0.541,0.447,1.238,0.672,2.094,0.672c0.947,0,1.811-0.151,2.588-0.455l0.336,1.482c-0.91,0.395-1.982,0.592-3.221,0.592
			c-1.486,0-2.656-0.438-3.504-1.313c-0.85-0.876-1.275-2.05-1.275-3.525c0-1.448,0.396-2.653,1.186-3.614
			c0.83-1.027,1.949-1.541,3.357-1.541c1.383,0,2.43,0.513,3.141,1.541C88.99,24.043,89.273,25.051,89.273,26.248z M87.238,25.695
			c0.014-0.632-0.125-1.178-0.414-1.639c-0.369-0.593-0.936-0.889-1.699-0.889c-0.697,0-1.264,0.289-1.697,0.869
			c-0.357,0.461-0.566,1.014-0.633,1.658H87.238z"/>
		<path fill="#FFFFFF" d="M97.51,28.744c0,0.893-0.33,1.609-0.988,2.147s-1.566,0.808-2.725,0.808c-1.094,0-2.021-0.217-2.785-0.651
			l0.453-1.58c0.738,0.448,1.521,0.671,2.352,0.671c1.092,0,1.639-0.4,1.639-1.204c0-0.355-0.119-0.648-0.355-0.879
			s-0.658-0.458-1.264-0.682c-1.713-0.632-2.568-1.554-2.568-2.765c0-0.83,0.316-1.521,0.949-2.074
			c0.631-0.553,1.467-0.829,2.508-0.829c0.947,0,1.758,0.193,2.43,0.58l-0.455,1.533c-0.619-0.368-1.271-0.554-1.955-0.554
			c-0.447,0-0.797,0.105-1.047,0.316c-0.25,0.209-0.375,0.479-0.375,0.807c0,0.329,0.131,0.599,0.395,0.809
			c0.225,0.197,0.658,0.414,1.305,0.65C96.68,26.479,97.51,27.443,97.51,28.744z"/>
	</g>
</g>
</svg>
